<?xml version="1.0" encoding="utf-8"?>
<!-- Generator: Adobe Illustrator 21.1.0, SVG Export Plug-In . SVG Version: 6.00 Build 0)  -->
<svg version="1.1" id="Layer_1" xmlns="http://www.w3.org/2000/svg" xmlns:xlink="http://www.w3.org/1999/xlink" x="0px" y="0px"
	 viewBox="0 0 1920 1080" style="enable-background:new 0 0 1920 1080;" xml:space="preserve">
<style type="text/css">
	.st0{fill:#30A1AD;opacity:0.5;}
	.st1{fill:#18777C;opacity:0.5;}
	.st2{fill:none;stroke:#18777C;stroke-width:5;stroke-miterlimit:10;opacity:0.4;}
	.st3{fill:#2BE0E0;opacity:0.4;}
	.st4{fill:#175957;opacity:0.4;}
	.st5{fill:#4B9B97;opacity:0.4;}
	.st6{fill:#30C6BB;opacity:0.3;}
	.st7{fill:#106B62;opacity:0.3;}
	.st8{fill:#09AF9B;opacity:0.25;}
	.st9{fill:#116C70;stroke:#116C70;stroke-miterlimit:10;opacity:0.25;}
	.st13{fill:url(#SVGID_1_);}
</style>
	<defs>
		<style>
			@-webkit-keyframes dash {
				from {
					transform:rotate(0deg);				}
				to {
					transform:rotate(360deg);	
				}
			}
			@-webkit-keyframes fadein7 {
				from {
					opacity:0;				}
				to {
					opacity:0.7;	
				}
			}
			@-webkit-keyframes fadein6 {
				from {
					opacity:0;				}
				to {
					opacity:0.6;	
				}
			}
			@-webkit-keyframes fadein5 {
				from {
					opacity:0;				}
				to {
					opacity:0.5;	
				}
			}
			@-webkit-keyframes fadein4 {
				from {
					opacity:0;				}
				to {
					opacity:0.4;	
				}
			}
			@-webkit-keyframes fadein3 {
				from {
					opacity:0;				}
				to {
					opacity:0.3;	
				}
			}
			@-webkit-keyframes dash1 {
				from {
					transform:rotate(0deg);				}
				to {
					transform:rotate(-360deg);	
				}
			}
			.st0 {
				-webkit-animation: dash 15s linear forwards;
				-o-animation: dash 15s linear forwards;
				animation:dash 15s linear forward;
				animation-iteration-count: infinite;
				transform-origin:50% 50%;
			}
			.st1 {
				-webkit-animation: dash1 15s linear forwards;
				-o-animation: dash1 15s linear forwards;
				animation:dash1 15s linear forward;
				animation-iteration-count: infinite;
				transform-origin:50% 50%;
			}
			.st2 {
				-webkit-animation: dash 15s linear forwards;
				-o-animation: dash 15s linear forwards;
				animation:dash 15s linear forward;
				animation-iteration-count: infinite;
				transform-origin:50% 50%;
			}
			.st3 {
				-webkit-animation: dash1 18s linear forwards;
				-o-animation: dash1 18s linear forwards;
				animation:dash1 18s linear forward;
				animation-iteration-count: infinite;
				transform-origin:50% 50%;
			}
			.st4 {
				-webkit-animation: dash 19s linear forwards;
				-o-animation: dash 19s linear forwards;
				animation:dash 19s linear forward;
				animation-iteration-count: infinite;
				transform-origin:50% 50%;
			}
			.st5 {
				-webkit-animation: dash1 19s linear forwards;
				-o-animation: dash1 19s linear forwards;
				animation:dash1 19s linear forward;
				animation-iteration-count: infinite;
				transform-origin:50% 50%;
			}
			.st6 {
				-webkit-animation: dash 20s linear forwards;
				-o-animation: dash 20s linear forwards;
				animation:dash 20s linear forward;
				animation-iteration-count: infinite;
				transform-origin:50% 50%;
			}
			.st7 {
				-webkit-animation: dash1 20s linear forwards;
				-o-animation: dash1 20s linear forwards;
				animation:dash1 20s linear forward;
				animation-iteration-count: infinite;
				transform-origin:50% 50%;
			}
			.st8 {
				-webkit-animation: dash 21s linear forwards;
				-o-animation: dash 21s linear forwards;
				animation:dash 21s linear forward;
				animation-iteration-count: infinite;
				transform-origin:50% 50%;
			}
			.st9 {
				-webkit-animation: dash1 23s linear forwards;
				-o-animation: dash1 23s linear forwards;
				animation:dash1 23s linear forward;
				animation-iteration-count: infinite;
				transform-origin:50% 50%;
			}		
		</style>
	</defs>
<path class="st0" d="M960,499c-9,0-17.2,2.9-24,7.8c3.4,3.4,6.7,6.7,10.1,10.1c4.1-2.5,8.8-3.9,13.9-3.9c14.9,0,27,12.1,27,27
	s-12.1,27-27,27s-27-12.1-27-27c0-4.4,1.1-8.5,2.9-12.2l-10.2-10.2c-4.2,6.4-6.7,14.1-6.7,22.4c0,22.6,18.4,41,41,41s41-18.4,41-41
	S982.6,499,960,499z"/>

	<path class="st1" d="M904.2,549h-7.1c4,27.8,26,49.9,53.9,53.9v-7.1C927,591.9,908.1,573,904.2,549z M954,476.8c-30.3,2.8-54.4,27-57.2,57.2h7c2.8-26.4,23.8-47.4,50.2-50.2V476.8z M969,477.1v7.1c25,4,44.5,24.4,47.2,49.8h7C1020.5,504.8,997.8,481.2,969,477.1z M1015.8,549c-4,25-24.4,44.5-49.8,47.2v7c29.2-2.7,52.8-25.4,56.9-54.2H1015.8z"/>

	<circle class="st2" cx="960" cy="540" r="84"/>
	<path class="st3" d="M936.7,645.3c-48.3-10.7-84.6-53.8-84.6-105.3c0-51.4,36.1-94.4,84.2-105.2v-7.2
		c-52,10.9-91.2,57.2-91.2,112.4c0,55.4,39.4,101.7,91.6,112.5V645.3z M984.3,427.8v7.2c47.8,11,83.6,54,83.6,105.1c0,51-35.6,93.8-83.2,105v7.2c51.5-11.3,90.2-57.3,90.2-112.2
		C1074.8,485,1036,438.9,984.3,427.8z M882.1,471.7c3.2-3.7,6.7-7.1,10.3-10.3v-17.7c-10.9,7.7-20.4,17.2-28.2,28H882.1z M882.1,608.3h-17.8c7.7,10.8,17.3,20.3,28.2,28v-17.7C888.7,615.4,885.3,611.9,882.1,608.3z M1028.9,444.7v17.9c21.3,19,34.7,46.6,34.7,77.4c0,30.7-13.4,58.4-34.7,77.4v17.9
		c29.5-21.4,48.7-56.1,48.7-95.3C1077.7,500.8,1058.4,466.1,1028.9,444.7z"/>
	<path class="st4" d="M830.3,503.1c16.1-56.4,68.1-97.9,129.7-97.9c9.9,0,19.6,1.1,28.9,3.1c2.5-2.5,5-5,7.5-7.5
		c-11.6-3-23.8-4.7-36.4-4.7c-66.5,0-122.7,45.4-139,106.9h9.3V503.1z M1074.2,611.6c2.2,2.2,4.3,4.3,6.5,6.5c14.6-22.5,23.1-49.4,23.1-78.1c0-16.1-2.7-31.6-7.6-46
		c-2.4,2.4-4.8,4.8-7.2,7.2c3.7,12.3,5.7,25.3,5.7,38.8C1094.8,566.3,1087.3,590.9,1074.2,611.6z M1032.9,653.4c-21,13.6-46,21.4-72.9,21.4c-62,0-114.4-42.1-130.1-99.2h-9.3C836.5,637.8,893,683.8,960,683.8
		c29.3,0,56.6-8.8,79.3-23.9C1037.2,657.7,1035,655.6,1032.9,653.4z"/>
	<path class="st5" d="M797.7,524.5l-14.3-14.3c-1.6,9.7-2.5,19.6-2.5,29.7c0,11.1,1,22,3,32.6l14.1-14.1c-0.7-6.1-1.1-12.2-1.1-18.5
		C797,534.8,797.3,529.6,797.7,524.5z M1086.4,642.8c-29.9,36.7-75.5,60.2-126.4,60.2c-6.3,0-12.4-0.4-18.5-1.1L927.4,716c10.6,2,21.5,3,32.6,3
		c60.5,0,114-30.2,146.5-76.2H1086.4z M960,377c52.2,0,98.7,24.6,128.5,62.9h19.8c-32.2-47.6-86.7-78.9-148.3-78.9c-12.1,0-23.9,1.2-35.4,3.5
		c4.6,4.6,9.3,9.3,13.9,13.9C945.6,377.5,952.7,377,960,377z M899.4,393.4c18.7-7.7,39.1-11.9,60.6-11.9c66.7,0,124.1,41.1,148,99.3h6.5c-24.3-61.6-84.4-105.3-154.5-105.3
		c-23.1,0-45.1,4.8-65.2,13.3L899.4,393.4z M811.4,600.6c-7.3-18.3-11.3-38.3-11.3-59.2c0-22.9,4.9-44.7,13.6-64.4l-4.5-4.5c-9.6,21-15,44.4-15,69
		c0,22.6,4.5,44.1,12.7,63.8L811.4,600.6z M1108.6,600.6c-23.6,59-81.3,100.8-148.6,100.8c-23.5,0-45.7-5.1-65.8-14.2l-4.5,4.5
		c21.4,10,45.2,15.7,70.3,15.7c70.7,0,131.2-44.4,155.1-106.8H1108.6z"/>
	<path class="st5" d="M813.1,690.5c1.7-2.1,3.4-4.2,5-6.3c-26.3-25.8-45.6-58.8-54.7-95.7c-2.8-0.1-5.5-0.1-8.3-0.2
		C764.5,627.8,785,663.1,813.1,690.5z M1111.1,674.5c-37.1,41.6-91.1,67.9-151.1,67.9c-10.5,0-20.8-0.8-30.9-2.4c-2.3,2.3-4.6,4.6-6.8,7
		c12.2,2.2,24.8,3.4,37.7,3.4c63.2,0,120-28,158.6-72.3C1116.1,677.1,1113.6,675.9,1111.1,674.5z M794.9,409.7c-13.9,17.6-25.1,37.5-32.8,59c2.8,0.1,5.6,0.2,8.4,0.3c7.4-19.6,17.7-37.7,30.4-53.9
		C798.9,413.3,796.9,411.5,794.9,409.7z M960,329.6c-22.3,0-43.8,3.5-64,10c2.3,2.1,4.6,4.2,7,6.2c18.1-5.3,37.2-8.2,57-8.2c29.2,0,56.9,6.2,82,17.4
		c3.2-1.8,6.6-3.2,10-4.2C1024.2,337.2,993,329.6,960,329.6z"/>
	<path class="st6" d="M731,604h-16.6c6,23.2,15.3,45.4,27.6,66c3.9-3.9,7.9-7.9,11.8-11.8C744.1,641.3,736.4,623.1,731,604z M825.9,755.5c22.7,14.2,47.4,24.6,73.3,30.9v-16.6c-21.9-5.8-42.6-14.7-61.6-26.1
		C833.7,747.6,829.8,751.6,825.9,755.5z M1190.2,599.5c-21.6,83.5-87.6,149.4-171.2,170.8v16.5c45.2-10.7,86.7-33.8,120.4-67.4
		c33.6-33.6,56.6-74.9,67.3-119.9L1190.2,599.5L1190.2,599.5z M899.2,293.6c-44.5,10.9-85.4,33.8-118.6,67c-34.5,34.5-57.8,77.1-68.2,123.6h16.5
		c20.4-84.7,86.3-151.8,170.3-174V293.6z"/>
		<path class="st6" d="M1091.6,323c-22.5-13.7-47-23.8-72.6-29.8v16.5c21.6,5.5,42,14.1,60.8,25.1
			C1083.8,330.8,1087.7,326.9,1091.6,323z M1164.7,419.3c11,18.7,19.6,39,25.3,60.4h16.6c-6.2-25.5-16.3-49.8-30.1-72.2
			C1172.6,411.4,1168.6,415.3,1164.7,419.3z M744.7,670.6c-23.2-38.1-36.6-82.8-36.6-130.6c0-138.9,113-251.9,251.9-251.9c47.6,0,92.2,13.3,130.2,36.3
			c1.3-1.2,2.5-2.5,3.8-3.7c-39.9-24.5-85.9-37.6-133.9-37.6c-68.6,0-133.1,26.7-181.7,75.2c-48.5,48.5-75.2,113-75.2,181.7
			c0,48.2,13.2,94.3,37.8,134.4L744.7,670.6z M1178.8,405.2c-1.2,1.2-2.5,2.5-3.7,3.7c23.4,38.2,36.9,83.1,36.9,131.1c0,138.9-113,251.9-251.9,251.9
			c-47.8,0-92.5-13.4-130.6-36.6c-1.2,1.2-2.5,2.5-3.7,3.7c40,24.6,86.2,37.8,134.4,37.8c68.6,0,133.1-26.7,181.7-75.2
			c48.5-48.5,75.2-113,75.2-181.7C1216.9,491.6,1203.6,445.3,1178.8,405.2z"/>
	<path class="st7" d="M718.3,400.8C766.6,317.3,856.8,261,960,261c24,0,47.3,3,69.5,8.8l8.2-8.2c-25-6.9-51.1-10.5-77.7-10.5
		c-77.2,0-149.8,30.1-204.4,84.6c-19.6,19.6-36,41.5-49,65.1H718.3z M1238,460.7l-8.2,8.2c6,22.7,9.2,46.5,9.2,71.1c0,153.8-125.2,279-279,279c-101.5,0-190.5-54.5-239.3-135.7
		h-11.8c12.6,22.1,28.3,42.6,46.8,61.1C810.2,798.9,882.8,829,960,829s149.8-30.1,204.4-84.6S1249,617.2,1249,540
		C1249,512.8,1245.2,486.2,1238,460.7z"/>
	<path class="st8" d="M1259.2,630c4.8,4.9,9.6,9.7,14.4,14.6c11.1-33.3,16.8-68.5,16.8-104.6c0-41.4-7.5-81.6-22-119l-14.1,14.1
		c11.7,32.8,18.1,68.1,18.1,104.9C1272.5,571.3,1267.8,601.5,1259.2,630z M1072.9,831.3c-34.9,13.6-72.8,21.1-112.4,21.1v18c44-0.1,86.7-8.7,126.2-25.1
		C1082.2,840.7,1077.6,836,1072.9,831.3z M680.4,400.7l-13.5-13.5c-24.4,46.6-37.3,98.7-37.3,152.9c0,0.4,0,0.7,0,1.1h18c0-0.4,0-0.7,0-1.1
		C647.5,490,659.4,442.6,680.4,400.7z M960,209.5c-25.5,0-50.5,2.9-74.7,8.5c5.1,5.1,10.2,10.2,15.2,15.2c19.3-3.7,39.1-5.7,59.5-5.7
		c34.4,0,67.5,5.6,98.5,15.9l14.3-14.3C1037.1,216.3,999,209.5,960,209.5z M960,227.4c58.3,0,112.9,16,159.6,43.9c3.1-1.4,6.3-2.7,9.6-3.8c-50.3-31.4-108.5-48.2-169.2-48.2
		c-85.6,0-166.1,33.3-226.7,93.9c-60.5,60.5-93.9,141.1-93.9,226.7c0,43.2,8.5,85,24.6,123.7l6.3-6.3
		c-14.8-36.3-22.9-75.9-22.9-117.4C647.4,367.6,787.6,227.4,960,227.4z M1228.1,364.2c-0.8,2.1-1.6,4.2-2.6,6.2c-0.3,1.1-0.7,2.2-1.1,3.2c30.5,48.2,48.1,105.3,48.1,166.4
		c0,55.4-14.5,107.5-39.9,152.6l6,6c27.3-47.8,41.9-102.1,41.9-158.7C1280.6,476.6,1262.3,415.9,1228.1,364.2z M1124,806c-47.7,29.5-103.9,46.6-164,46.6c-43.1,0-84.3-8.8-121.7-24.7c-2.1,2.1-4.2,4.2-6.2,6.2
		c39.8,17.3,83.2,26.4,127.9,26.4c61,0,119.5-17,169.9-48.6L1124,806z"/>
<circle class="st9" cx="-222.9" cy="47.1" r="0"/>
	<path class="st9" d="M738.1,251.1l7.7-23.2c-25.4,17.6-48.5,38.2-69,61.6c-33.4,38.1-58.5,82.1-74.6,130.7s-22.1,98.8-18.1,149.4
		c2,25.3,6.6,50,13.5,74.2l8.2-24.9c-14.1-62.4-11.9-129.2,9.6-194.3C639.1,353.2,682.7,294,738.1,251.1z M1339.7,508.8c-2.4-29.3-8.1-58-17.1-85.8l-7.8,23.7c17.4,66,16.6,137.6-6.4,207.1
		c-25,75.5-72.4,137.4-132.4,180.8l-7.3,22.2c29.1-18.9,55.4-41.6,78.4-67.9c33.4-38.1,58.5-82.1,74.6-130.7
		C1337.7,609.6,1343.8,559.3,1339.7,508.8z"/>
<radialGradient id="SVGID_1_" cx="960.05" cy="540.05" r="457.5127" gradientTransform="matrix(1 0 0 -1.0352 0 1098.9949)" gradientUnits="userSpaceOnUse">
	<stop  offset="0" style="stop-color:#000000;stop-opacity:0.3"/>
	<stop  offset="1" style="stop-color:#000000;stop-opacity:0"/>
</radialGradient>
<rect x="465.7" y="64.2" class="st13" width="988.6" height="951.5"/>
</svg>
