<?xml version="1.0" encoding="utf-8"?>
<!-- Generator: Adobe Illustrator 21.1.0, SVG Export Plug-In . SVG Version: 6.00 Build 0)  -->
<svg version="1.1" id="Layer_1" xmlns="http://www.w3.org/2000/svg" xmlns:xlink="http://www.w3.org/1999/xlink" x="0px" y="0px"
	 viewBox="0 0 199 31" style="enable-background:new 0 0 199 31;" xml:space="preserve">
<style type="text/css">
	.st0{fill:#30A1AD;}
	.st1{fill:#E9EBEB;}
</style>
<g>
	<path class="st0" d="M3.2,11.1c0.7-4.1,3.9-7.5,8.2-7.5c2.1,0,4.2,0.9,5.5,2.7l2.2-1.7c-1.9-2.5-4.8-3.5-7.8-3.5
		c-5.9,0-10.4,4.3-11.1,10H3.2z"/>
	<path class="st0" d="M11.4,22c-4.4,0-7.6-3.3-8.3-7.6H0.2c0.8,5.8,5.3,9.9,11.2,10.1c3.6,0,6.4-1.3,8.4-3.9l-2-1.7
		C16.2,20.9,14.1,22,11.4,22z"/>
	<path class="st1" d="M29.9,8.8c4.5,0,7.8,3.1,7.8,7.7s-3.3,7.7-7.8,7.7s-7.8-3.1-7.8-7.7C22.1,11.9,25.4,8.8,29.9,8.8z M29.9,21.9
		c3.1,0,5.2-2.4,5.2-5.4c0-3.1-2-5.4-5.2-5.4c-3.1,0-5.2,2.4-5.2,5.4C24.7,19.5,26.7,21.9,29.9,21.9z"/>
	<path class="st1" d="M42.9,1.7c1,0,1.8,0.8,1.8,1.8S44,5.3,42.9,5.3c-1,0-1.8-0.7-1.8-1.8C41.1,2.5,41.9,1.7,42.9,1.7z M41.6,9.2
		H44v14.6h-2.4V9.2z"/>
	<path class="st1" d="M48.9,12.6c0-1.3-0.1-2.5-0.1-3.5h2.3c0,0.8,0.1,1.6,0.1,2.4h0.1c0.7-1.4,2.5-2.8,4.9-2.8c3.8,0,5.5,2.4,5.5,6
		v9h-2.4V15c0-2.4-1.1-4-3.3-4c-3.1,0-4.5,2.3-4.5,5.6v7.1h-2.4V12.6H48.9z"/>
	<path class="st0" d="M77.1,11.1c0.7-4.1,3.9-7.5,8.2-7.5c2.1,0,4.2,0.9,5.5,2.7l2.3-1.5c-1.9-2.5-4.8-3.5-7.8-3.5
		c-5.9,0-10.3,4.2-11.1,9.8H77.1z"/>
	<path class="st0" d="M91.7,18.9c-1.6,2-3.7,3.1-6.4,3.1c-4.4,0-7.6-3.3-8.3-7.6h-2.8c0.7,5.9,5.3,10.1,11.1,10.1
		c3.6,0,6.4-1.3,8.4-3.9L91.7,18.9z"/>
	<path class="st1" d="M103.8,8.8c4.5,0,7.8,3.1,7.8,7.7s-3.3,7.7-7.8,7.7S96,21,96,16.5C96,11.9,99.3,8.8,103.8,8.8z M103.8,21.9
		c3.1,0,5.2-2.4,5.2-5.4c0-3.1-2-5.4-5.2-5.4c-3.1,0-5.2,2.4-5.2,5.4C98.6,19.5,100.6,21.9,103.8,21.9z"/>
	<path class="st1" d="M115.3,12.6c0-1.3-0.1-2.5-0.1-3.5h2.3c0,0.8,0.1,1.6,0.1,2.4h0.1c0.7-1.4,2.5-2.8,4.9-2.8
		c3.1,0,4.1,1.8,4.6,2.8c1.1-1.7,2.4-2.8,4.6-2.8c4.2,0,5.5,2.3,5.5,6.1v8.9h-2.4V15c0-2-0.7-4-3.6-4c-2.1,0-3.8,1.7-3.8,4.3v8.4
		h-2.4v-8.3c0-3.2-0.8-4.5-2.8-4.5c-3.1,0-4.5,2.3-4.5,5.6v7.1h-2.4L115.3,12.6L115.3,12.6z"/>
	<path class="st1" d="M141.8,9.2h2.4v2.1h0.1c1.3-1.6,3.1-2.5,5.2-2.5c4.6,0,7.7,3.2,7.7,7.7c0,4.4-3.2,7.7-7.3,7.7
		c-2.6,0-4.7-1.3-5.6-3h-0.1v9.7h-2.4L141.8,9.2L141.8,9.2z M149.4,21.9c3.1,0,5.2-2.4,5.2-5.4c0-3.1-2-5.4-5.2-5.4
		c-3.1,0-5.2,2.4-5.2,5.4S146.2,21.9,149.4,21.9z"/>
	<path class="st1" d="M161.1,0.2h2.4v23.6h-2.4V0.2z"/>
	<path class="st1" d="M181.4,21.1c-1.7,2.2-3.8,3-6.5,3c-4.6,0-7.4-3.4-7.4-7.7c0-4.5,3.2-7.7,7.5-7.7c4.1,0,6.9,2.8,6.9,7.6v0.8
		h-11.8c0.2,2.5,2.1,4.7,4.8,4.7c2.1,0,3.5-0.7,4.6-2.2L181.4,21.1z M179.3,15.2c-0.1-2.5-1.7-4.1-4.4-4.1s-4.5,1.7-4.8,4.1
		C170.1,15.2,179.3,15.2,179.3,15.2z"/>
	<path class="st1" d="M189.5,15.9l-5.2-6.7h3.2l3.9,5.2l3.6-5.2h3l-5,6.7l6,7.9h-3.2l-4.6-6.3l-4.6,6.3h-3L189.5,15.9z"/>
</g>
</svg>
