<?xml version="1.0" encoding="utf-8"?>
<!-- Generator: Adobe Illustrator 22.1.0, SVG Export Plug-In . SVG Version: 6.00 Build 0)  -->
<svg version="1.1" id="Layer_1" xmlns="http://www.w3.org/2000/svg" xmlns:xlink="http://www.w3.org/1999/xlink" x="0px" y="0px"
	 viewBox="0 0 200 39" style="enable-background:new 0 0 200 39;" xml:space="preserve">
<style type="text/css">
	.st0{fill:#30A1AD;}
	.st1{fill:#E9EBEB;}
</style>
<path class="st0" d="M33.3,25.5c-3.8,0-6.3-2.4-7-5.6h-1.6c0.7,4.2,4.1,7.1,8.6,7.1c2.5,0,4.7-0.9,6.3-3.1l-1.3-1
	C37.1,24.6,35,25.5,33.3,25.5z"/>
<path class="st0" d="M26.3,16.2c0.7-3.3,3.2-5.7,7-5.7c1.7,0,3.5,0.7,4.6,2.3l1.3-1.1C37.7,9.8,35.6,9,33.3,9
	c-4.6,0-7.9,2.9-8.6,7.2H26.3z"/>
<path class="st1" d="M47.3,15.1c3.4,0,5.8,2.4,5.8,5.8s-2.4,5.8-5.8,5.8c-3.4,0-5.8-2.4-5.8-5.8S43.9,15.1,47.3,15.1z M47.3,25.5
	c2.7,0,4.4-2,4.4-4.5s-1.7-4.5-4.4-4.5s-4.4,2-4.4,4.5C42.9,23.4,44.6,25.5,47.3,25.5z"/>
<path class="st1" d="M57.3,9.9c0.6,0,1.1,0.5,1.1,1.1s-0.5,1.1-1.1,1.1s-1.1-0.5-1.1-1.1S56.7,9.9,57.3,9.9z M56.6,15.4H58v11.1
	h-1.4V15.4z"/>
<path class="st1" d="M62.1,18.5c0-0.8-0.1-2.5-0.1-3.1h1.4c0,0.8,0,1.7,0.1,1.9h0.1c0.6-1.2,2-2.2,3.8-2.2c3.5,0,4.2,2.4,4.2,4.8
	v6.6h-1.4V20c0-1.8-0.5-3.6-2.8-3.6c-2.1,0-3.8,1.5-3.8,4.5v5.5h-1.4L62.1,18.5L62.1,18.5z"/>
<path class="st0" d="M82.8,16.2c0.7-3.3,3.2-5.7,7-5.7c1.7,0,3.5,0.7,4.6,2.3l1.3-1.1C94.2,9.8,92.1,9,89.8,9
	c-4.6,0-7.9,2.9-8.6,7.2H82.8z"/>
<path class="st0" d="M94.8,22.8c-1.2,1.8-3.3,2.6-5,2.6c-3.8,0-6.3-2.4-7-5.6h-1.6c0.7,4.2,4.1,7.1,8.6,7.1c2.5,0,4.7-0.9,6.3-3.1
	L94.8,22.8z"/>
<path class="st1" d="M103.8,15.1c3.4,0,5.8,2.4,5.8,5.8s-2.4,5.8-5.8,5.8S98,24.3,98,20.9S100.4,15.1,103.8,15.1z M103.8,25.5
	c2.7,0,4.4-2,4.4-4.5s-1.7-4.5-4.4-4.5c-2.7,0-4.4,2-4.4,4.5C99.4,23.4,101.1,25.5,103.8,25.5z"/>
<path class="st1" d="M112.9,18.5c0-0.8-0.1-2.5-0.1-3.1h1.4c0,0.8,0,1.7,0.1,1.9h0.1c0.6-1.2,2-2.2,3.8-2.2c1.5,0,2.8,0.7,3.3,2.4
	c0.7-1.7,2.2-2.4,3.8-2.4c3.5,0,4.2,2.4,4.2,4.8v6.6H128V20c0-1.8-0.5-3.6-2.8-3.6c-2.7,0-3.4,2.3-3.4,3.8v6.2h-1.4v-6.7
	c0-2-0.7-3.4-2.3-3.4c-2.1,0-3.8,1.5-3.8,4.5v5.5h-1.4L112.9,18.5L112.9,18.5z"/>
<path class="st1" d="M133,15.4h1.4v1.9l0,0c0.9-1.5,2.8-2.2,4.4-2.2c3.4,0,5.8,2.4,5.8,5.8s-2.4,5.8-5.8,5.8c-1.7,0-3.6-0.7-4.4-2.2
	l0,0v7.4H133V15.4z M138.9,25.5c2.7,0,4.4-2,4.4-4.5s-1.7-4.5-4.4-4.5c-2.6,0-4.6,2-4.6,4.5C134.3,23.4,136.3,25.5,138.9,25.5z"/>
<path class="st1" d="M148.2,8.3h1.4v18.1h-1.4V8.3z"/>
<path class="st1" d="M163.5,24.4c-1.1,1.7-2.8,2.4-4.8,2.4c-3.4,0-5.6-2.4-5.6-5.9c0-3.3,2.3-5.8,5.5-5.8c3.4,0,5.2,2.6,5.2,5.2v1
	h-9.3c0,1.2,0.8,4.2,4.2,4.2c1.5,0,3-0.8,3.7-2L163.5,24.4z M162.4,20c0-2-1.7-3.6-3.8-3.6c-3.1,0-4,3-4,3.6H162.4z"/>
<path class="st1" d="M169.9,20.5l-4-5.1h1.8l3.1,4.2l3-4.2h1.8l-3.9,5.1l4.8,6h-1.9l-3.9-5l-3.8,5h-1.7L169.9,20.5z"/>
<rect x="133" y="31.6" class="st1" width="1.4" height="6.6"/>
<rect x="148.2" y="0.9" class="st1" width="1.4" height="7.7"/>
</svg>
