<?xml version="1.0" encoding="utf-8"?>
<!-- Generator: Adobe Illustrator 21.1.0, SVG Export Plug-In . SVG Version: 6.00 Build 0)  -->
<svg version="1.1" id="Layer_1" xmlns="http://www.w3.org/2000/svg" xmlns:xlink="http://www.w3.org/1999/xlink" x="0px" y="0px"
	 viewBox="0 0 216 30.9" style="enable-background:new 0 0 216 30.9;" xml:space="preserve">
<style type="text/css">
	.st0{fill:#40C1BD;}
	.st1{fill:#F4F6F6;}
</style>
<g>
	<path class="st0" d="M3.5,11.1C3.6,10,4.1,8.9,4.6,7.9c0.9-1.5,2-2.6,3.5-3.5s3.2-1.2,4.9-1.2c1.6,0,3.2,0.4,4.6,0.9
		c1.4,0.6,2.6,1.6,3.5,2.8l1.8-1.4C21.7,4,20.3,2.8,18.7,2c-1.6-0.7-3.6-1.2-5.5-1.2c-3.5,0-6.3,1.1-8.5,3.3c-2,2-3,4.2-3.3,6.9h2.1
		C3.5,11,3.5,11.1,3.5,11.1z"/>
	<path class="st0" d="M13.2,22.2c-2.8,0-5.1-0.9-7-2.7c-1.5-1.5-2.5-3.3-2.7-5.4H1.1c0.4,2.5,1.2,4.6,2.7,6.3c2.2,2.6,5.2,3.9,9,3.9
		c2.1,0,3.9-0.5,5.5-1.2c1.6-0.7,3-1.8,4.2-3.3l-1.8-1.4C18.9,21,16.2,22.2,13.2,22.2z"/>
	<path class="st1" d="M34.4,6.9c2.6,0,4.7,0.9,6.3,2.7c1.5,1.6,2.2,3.6,2.2,6c0,2.2-0.7,4.3-2.5,6c-1.6,1.6-3.6,2.6-6.2,2.6
		s-4.7-0.9-6.2-2.6c-1.6-1.6-2.5-3.7-2.5-6s0.7-4.2,2.2-5.8C29.9,7.9,32,6.9,34.4,6.9z M34.4,8.9c-1.8,0-3.3,0.6-4.6,2
		c-1.2,1.4-2,2.8-2,4.7c0,1.2,0.4,2.2,0.9,3.3c0.6,1.1,1.4,1.8,2.5,2.5c1.1,0.6,2.1,0.9,3.3,0.9s2.2-0.4,3.3-0.9
		c1.1-0.6,1.8-1.4,2.5-2.5c0.6-1.1,0.9-2.1,0.9-3.3c0-1.8-0.6-3.5-2-4.7S36.3,8.9,34.4,8.9z"/>
	<path class="st1" d="M47.6,0.5c0.5,0,0.9,0.1,1.2,0.5c0.4,0.4,0.5,0.7,0.5,1.2s-0.1,0.9-0.5,1.2c-0.4,0.4-0.7,0.5-1.2,0.5
		s-0.9-0.1-1.2-0.5S46,2.6,46,2.1s0.1-0.9,0.5-1.2C46.9,0.7,47.2,0.5,47.6,0.5z M46.6,7.3h2.2v16.5h-2.1V7.3H46.6z"/>
	<path class="st1" d="M53.2,7.3h2.1v3c0.9-1.2,1.8-2,2.8-2.6c1.1-0.6,2.1-0.9,3.3-0.9s2.2,0.4,3.3,0.9c0.9,0.6,1.6,1.5,2.1,2.6
		s0.7,2.7,0.7,4.9v8.4h-2.2v-7.8c0-2-0.1-3.2-0.4-3.7c-0.4-1.1-0.7-2-1.4-2.5c-0.6-0.5-1.6-0.7-2.7-0.7c-1.4,0-2.5,0.5-3.5,1.2
		c-1.1,0.9-1.6,2-2,3.2c-0.1,0.7-0.4,2.2-0.4,4.6v6h-2.1C53.2,23.7,53.2,7.3,53.2,7.3z"/>
	<path class="st0" d="M82.4,11c0.1-1.1,0.6-2.1,1.1-3.2c0.9-1.5,2-2.6,3.5-3.5s3.2-1.2,4.9-1.2c1.6,0,3.2,0.4,4.6,0.9
		c1.4,0.6,2.6,1.6,3.5,2.8l1.8-1.4C100.6,4,99.2,2.8,97.6,2S94,0.8,92.1,0.8c-3.5,0-6.3,1.1-8.5,3.3c-2,1.8-3,4.1-3.3,6.5h2.2
		L82.4,11L82.4,11z"/>
	<path class="st0" d="M92,22.2c-2.8,0-5.1-0.9-7-2.7C83.5,18,82.5,16,82.3,14h-2.5c0.4,2.6,1.2,4.7,2.7,6.4c2.2,2.6,5.3,3.9,9.1,3.9
		c2.1,0,3.9-0.5,5.5-1.2s3-1.8,4.2-3.3l-1.8-1.4C97.7,21,95.2,22.2,92,22.2z"/>
	<path class="st1" d="M113.5,6.9c2.6,0,4.7,0.9,6.3,2.7c1.5,1.6,2.2,3.6,2.2,6c0,2.2-0.7,4.3-2.5,6c-1.6,1.6-3.6,2.6-6.2,2.6
		s-4.7-0.9-6.2-2.6c-1.6-1.6-2.5-3.7-2.5-6s0.7-4.2,2.2-5.8C108.8,7.9,110.9,6.9,113.5,6.9z M113.5,8.9c-1.8,0-3.3,0.6-4.6,2
		c-1.2,1.4-2,2.8-2,4.7c0,1.2,0.4,2.2,0.9,3.3c0.6,1.1,1.4,1.8,2.5,2.5c1.1,0.6,2.1,0.9,3.3,0.9c1.2,0,2.2-0.4,3.3-0.9
		c1.1-0.6,1.8-1.4,2.5-2.5c0.6-1.1,0.9-2.1,0.9-3.3c0-1.8-0.6-3.5-2-4.7C116.9,9.7,115.2,8.9,113.5,8.9z"/>
	<path class="st1" d="M125.9,7.3h2.1v2.8c0.7-1.1,1.5-1.8,2.2-2.2c1.1-0.6,2.2-0.9,3.3-0.9c0.7,0,1.5,0.1,2.2,0.5s1.4,0.7,1.8,1.2
		c0.5,0.5,0.9,1.2,1.2,2.2c0.7-1.4,1.6-2.2,2.7-3c1.1-0.6,2.2-1.1,3.5-1.1s2.1,0.4,3,0.9s1.5,1.4,2,2.5s0.6,2.6,0.6,4.7v9h-2.1v-9
		c0-1.8-0.1-3-0.5-3.6s-0.7-1.2-1.4-1.6c-0.6-0.5-1.4-0.6-2.1-0.6c-1.1,0-2,0.4-2.8,0.9c-0.9,0.6-1.5,1.4-1.8,2.5
		c-0.5,1.1-0.6,2.7-0.6,5.1v6.3h-2v-8.4c0-2-0.1-3.3-0.4-4.1c-0.4-0.7-0.7-1.4-1.4-1.6C134.9,9.1,134,9,133.2,9
		c-1.1,0-2,0.4-2.7,0.9c-0.9,0.6-1.5,1.4-2,2.5S128,15,128,17v6.8h-2.1V7.3L125.9,7.3z"/>
	<path class="st1" d="M154.9,7.3h2.1v3c0.9-1.2,1.8-2,2.8-2.6s2.2-0.9,3.6-0.9c2.5,0,4.3,0.9,6,2.6c1.6,1.6,2.6,3.7,2.6,6
		c0,2.5-0.7,4.6-2.5,6.2c-1.8,1.6-3.6,2.6-6,2.6c-1.4,0-2.6-0.4-3.6-0.7c-1.1-0.5-2.1-1.4-3-2.5v8.9h-2.1L154.9,7.3L154.9,7.3z
		 M163.3,8.9c-1.8,0-3.3,0.6-4.7,2c-1.2,1.4-1.8,2.8-1.8,4.8c0,1.2,0.4,2.5,0.9,3.3c0.6,1.1,1.4,1.8,2.5,2.5
		c1.1,0.6,2.1,0.9,3.3,0.9s2.2-0.4,3.2-0.9c1.1-0.6,1.8-1.4,2.5-2.5c0.6-1.1,0.9-2.1,0.9-3.3s-0.4-2.2-0.9-3.3s-1.4-1.8-2.5-2.5
		C165.7,9.3,164.6,8.9,163.3,8.9z"/>
	<path class="st1" d="M175.7,1h2.1v22.8h-2.1V1z"/>
	<path class="st1" d="M195.9,18.4l1.8,0.9c-0.6,1.2-1.2,2.1-2,2.8c-0.7,0.7-1.6,1.2-2.6,1.6c-0.9,0.4-2.1,0.6-3.3,0.6
		c-2.7,0-4.8-0.9-6.3-2.7c-1.5-1.8-2.2-3.7-2.2-6c0-2.1,0.6-3.9,2-5.5c1.6-2.1,3.7-3.2,6.4-3.2c2.8,0,5.1,1.1,6.8,3.2
		c1.2,1.5,1.8,3.3,1.8,5.5h-14.8c0,2,0.6,3.5,1.8,4.7s2.7,1.8,4.3,1.8c0.9,0,1.6-0.1,2.5-0.5c0.7-0.4,1.5-0.7,2-1.2
		C194.8,20.1,195.3,19.4,195.9,18.4z M195.9,13.9c-0.4-1.2-0.7-2.1-1.2-2.7c-0.6-0.6-1.2-1.2-2.1-1.6c-0.9-0.5-1.8-0.6-2.8-0.6
		c-1.6,0-3,0.5-4.2,1.5c-0.9,0.7-1.5,2-2,3.5L195.9,13.9L195.9,13.9z"/>
	<path class="st1" d="M200.4,7.3h2.6l4.3,6l4.3-6h2.6l-5.5,7.8l6.3,8.6h-2.7l-4.9-6.9l-4.9,6.9h-2.6l6.2-8.6L200.4,7.3z"/>
</g>
</svg>
