<?xml version="1.0" encoding="utf-8"?>
<!-- Generator: Adobe Illustrator 22.1.0, SVG Export Plug-In . SVG Version: 6.00 Build 0)  -->
<svg version="1.1" id="Layer_1" xmlns="http://www.w3.org/2000/svg" xmlns:xlink="http://www.w3.org/1999/xlink" x="0px" y="0px"
	 viewBox="0 0 190.9 39" style="enable-background:new 0 0 190.9 39;" xml:space="preserve">
<style type="text/css">
	.st0{fill:none;stroke:#E9EBEB;stroke-miterlimit:10;}
	.st1{fill:#30A1AD;}
	.st2{fill:#E9EBEB;}
</style>
<line class="st0" x1="190.9" y1="38.5" x2="0" y2="38.5"/>
<line class="st0" x1="0.5" y1="-0.9" x2="0.5" y2="39.4"/>
<line class="st0" x1="190.4" y1="-0.4" x2="190.4" y2="39.9"/>
<line class="st0" x1="190.9" y1="0.5" x2="-0.1" y2="0.5"/>
<path class="st1" d="M31.4,23.4c-0.4,0.3-0.8,0.6-1.3,0.8c-0.4,0.2-0.9,0.4-1.4,0.5c-0.5,0.1-0.9,0.2-1.4,0.2
	c-1.1,0-2.1-0.2-3.1-0.6c-0.9-0.4-1.7-0.9-2.3-1.6c-0.6-0.7-1.1-1.5-1.5-2.4c-0.2-0.4-0.3-0.8-0.4-1.3h-1.6c0.1,0.7,0.3,1.3,0.5,1.9
	c0.4,1.1,1.1,2.1,1.8,2.9c0.8,0.8,1.7,1.4,2.8,1.9c1.1,0.4,2.3,0.7,3.6,0.7c1.3,0,2.5-0.2,3.6-0.7c1.1-0.5,2.1-1.3,2.9-2.4l-1.3-1
	C32.2,22.7,31.8,23.1,31.4,23.4z"/>
<path class="st1" d="M20.2,15.5c0.1-0.4,0.2-0.9,0.3-1.3c0.3-0.9,0.8-1.7,1.5-2.4c0.6-0.7,1.4-1.2,2.3-1.6c0.9-0.4,1.9-0.6,3.1-0.6
	c0.9,0,1.7,0.2,2.6,0.6c0.8,0.4,1.5,1,2.1,1.8l1.3-1.1c-0.8-1-1.7-1.7-2.7-2.1c-1-0.4-2.1-0.6-3.3-0.6c-1.3,0-2.5,0.2-3.6,0.7
	c-1.1,0.5-2,1.1-2.8,1.9c-0.8,0.8-1.4,1.8-1.8,2.9c-0.2,0.6-0.4,1.3-0.5,1.9H20.2z"/>
<path class="st2" d="M35.7,20.2c0-0.9,0.1-1.7,0.4-2.4c0.3-0.7,0.7-1.4,1.2-1.9s1.2-0.9,1.9-1.2s1.5-0.4,2.4-0.4s1.7,0.1,2.4,0.4
	c0.7,0.3,1.4,0.7,1.9,1.2c0.5,0.5,0.9,1.2,1.2,1.9c0.3,0.7,0.4,1.5,0.4,2.4c0,0.9-0.1,1.7-0.4,2.4c-0.3,0.7-0.7,1.4-1.2,1.9
	c-0.5,0.5-1.2,0.9-1.9,1.2c-0.7,0.3-1.5,0.4-2.4,0.4s-1.7-0.1-2.4-0.4c-0.7-0.3-1.4-0.7-1.9-1.2c-0.5-0.5-0.9-1.2-1.2-1.9
	S35.7,21.1,35.7,20.2z M37.2,20.2c0,0.6,0.1,1.2,0.3,1.8s0.5,1.1,0.9,1.5c0.4,0.4,0.9,0.7,1.4,1c0.6,0.2,1.2,0.4,1.9,0.4
	s1.3-0.1,1.9-0.4s1-0.6,1.4-1c0.4-0.4,0.7-0.9,0.9-1.5c0.2-0.6,0.3-1.2,0.3-1.8c0-0.6-0.1-1.2-0.3-1.8c-0.2-0.6-0.5-1.1-0.9-1.5
	c-0.4-0.4-0.9-0.7-1.4-1s-1.2-0.4-1.9-0.4s-1.3,0.1-1.9,0.4c-0.6,0.2-1,0.6-1.4,1c-0.4,0.4-0.7,0.9-0.9,1.5S37.2,19.6,37.2,20.2z"/>
<path class="st2" d="M50.8,10.1c0-0.3,0.1-0.6,0.3-0.8C51.3,9.1,51.6,9,51.9,9c0.3,0,0.6,0.1,0.8,0.3c0.2,0.2,0.3,0.5,0.3,0.8
	c0,0.3-0.1,0.6-0.3,0.8c-0.2,0.2-0.5,0.3-0.8,0.3c-0.3,0-0.6-0.1-0.8-0.3S50.8,10.4,50.8,10.1z M51.1,14.6h1.5v11.3h-1.5V14.6z"/>
<path class="st2" d="M56.8,17.8c0-0.2,0-0.5,0-0.8c0-0.3,0-0.6,0-0.9c0-0.3,0-0.6,0-0.9c0-0.3,0-0.5,0-0.6h1.5c0,0.4,0,0.8,0,1.2
	c0,0.4,0,0.6,0.1,0.8h0.1c0.3-0.6,0.8-1.2,1.5-1.6c0.7-0.4,1.5-0.7,2.4-0.7c0.9,0,1.6,0.1,2.2,0.4c0.6,0.3,1,0.6,1.3,1.1
	c0.3,0.4,0.5,1,0.7,1.6s0.2,1.2,0.2,1.8v6.7H65v-6.7c0-0.5,0-0.9-0.1-1.3c-0.1-0.4-0.2-0.8-0.4-1.2c-0.2-0.3-0.5-0.6-0.9-0.8
	c-0.4-0.2-0.8-0.3-1.4-0.3c-0.5,0-1,0.1-1.5,0.3c-0.5,0.2-0.9,0.5-1.2,0.9c-0.4,0.4-0.6,0.9-0.8,1.4c-0.2,0.6-0.3,1.3-0.3,2v5.7
	h-1.5V17.8z"/>
<path class="st1" d="M77.8,15.5c0.1-0.4,0.2-0.9,0.3-1.3c0.3-0.9,0.8-1.7,1.5-2.4c0.6-0.7,1.4-1.2,2.3-1.6c0.9-0.4,1.9-0.6,3.1-0.6
	c0.9,0,1.7,0.2,2.6,0.6c0.8,0.4,1.5,1,2.1,1.8l1.3-1.1c-0.8-1-1.7-1.7-2.7-2.1c-1-0.4-2.1-0.6-3.3-0.6c-1.3,0-2.5,0.2-3.6,0.7
	c-1.1,0.5-2,1.1-2.8,1.9c-0.8,0.8-1.4,1.8-1.8,2.9c-0.2,0.6-0.4,1.3-0.5,1.9H77.8z"/>
<path class="st1" d="M90.1,22.2c-0.3,0.5-0.7,0.9-1.1,1.2s-0.8,0.6-1.3,0.8c-0.4,0.2-0.9,0.4-1.4,0.5c-0.5,0.1-0.9,0.2-1.4,0.2
	c-1.1,0-2.1-0.2-3.1-0.6c-0.9-0.4-1.7-0.9-2.3-1.6c-0.6-0.7-1.1-1.5-1.5-2.4c-0.2-0.4-0.3-0.8-0.4-1.3h-1.6c0.1,0.7,0.3,1.3,0.5,1.9
	c0.4,1.1,1.1,2.1,1.8,2.9c0.8,0.8,1.7,1.4,2.8,1.9c1.1,0.4,2.3,0.7,3.6,0.7c1.3,0,2.5-0.2,3.6-0.7c1.1-0.5,2.1-1.3,2.9-2.4
	L90.1,22.2z"/>
<path class="st2" d="M93.4,20.2c0-0.9,0.1-1.7,0.4-2.4c0.3-0.7,0.7-1.4,1.2-1.9s1.2-0.9,1.9-1.2c0.7-0.3,1.5-0.4,2.4-0.4
	c0.9,0,1.7,0.1,2.4,0.4s1.4,0.7,1.9,1.2c0.5,0.5,0.9,1.2,1.2,1.9c0.3,0.7,0.4,1.5,0.4,2.4c0,0.9-0.1,1.7-0.4,2.4s-0.7,1.4-1.2,1.9
	c-0.5,0.5-1.2,0.9-1.9,1.2c-0.7,0.3-1.5,0.4-2.4,0.4c-0.9,0-1.7-0.1-2.4-0.4c-0.7-0.3-1.4-0.7-1.9-1.2c-0.5-0.5-0.9-1.2-1.2-1.9
	S93.4,21.1,93.4,20.2z M94.8,20.2c0,0.6,0.1,1.2,0.3,1.8s0.5,1.1,0.9,1.5c0.4,0.4,0.9,0.7,1.4,1c0.6,0.2,1.2,0.4,1.9,0.4
	s1.3-0.1,1.9-0.4c0.6-0.2,1-0.6,1.4-1c0.4-0.4,0.7-0.9,0.9-1.5s0.3-1.2,0.3-1.8c0-0.6-0.1-1.2-0.3-1.8s-0.5-1.1-0.9-1.5
	c-0.4-0.4-0.9-0.7-1.4-1c-0.6-0.2-1.2-0.4-1.9-0.4S98,15.7,97.5,16c-0.6,0.2-1,0.6-1.4,1c-0.4,0.4-0.7,0.9-0.9,1.5
	S94.8,19.6,94.8,20.2z"/>
<path class="st2" d="M108.6,17.8c0-0.2,0-0.5,0-0.8c0-0.3,0-0.6,0-0.9c0-0.3,0-0.6,0-0.9c0-0.3,0-0.5,0-0.6h1.5c0,0.4,0,0.8,0,1.2
	c0,0.4,0,0.6,0.1,0.8h0.1c0.3-0.6,0.8-1.2,1.5-1.6c0.7-0.4,1.5-0.7,2.4-0.7c0.8,0,1.4,0.2,2.1,0.6c0.6,0.4,1.1,1,1.3,1.9
	c0.4-0.8,0.9-1.5,1.6-1.9c0.7-0.4,1.5-0.6,2.2-0.6c0.9,0,1.6,0.1,2.2,0.4c0.6,0.3,1,0.6,1.3,1.1s0.5,1,0.7,1.6
	c0.1,0.6,0.2,1.2,0.2,1.8v6.7H124v-6.7c0-0.5,0-0.9-0.1-1.3c-0.1-0.4-0.2-0.8-0.4-1.2c-0.2-0.3-0.5-0.6-0.9-0.8s-0.8-0.3-1.4-0.3
	c-0.7,0-1.2,0.1-1.7,0.4c-0.4,0.3-0.8,0.6-1,1c-0.3,0.4-0.4,0.8-0.5,1.3c-0.1,0.5-0.2,0.9-0.2,1.3v6.4h-1.5v-6.8
	c0-1-0.2-1.9-0.6-2.5c-0.4-0.6-1-1-1.8-1c-0.5,0-1,0.1-1.5,0.3c-0.5,0.2-0.9,0.5-1.2,0.9c-0.4,0.4-0.6,0.9-0.8,1.4
	c-0.2,0.6-0.3,1.3-0.3,2v5.7h-1.5V17.8z"/>
<path class="st2" d="M129.1,14.6h1.5v2h0c0.2-0.4,0.5-0.7,0.9-1c0.3-0.3,0.7-0.5,1.1-0.7c0.4-0.2,0.8-0.3,1.3-0.4
	c0.4-0.1,0.9-0.1,1.3-0.1c0.9,0,1.7,0.1,2.4,0.4c0.7,0.3,1.4,0.7,1.9,1.2c0.5,0.5,0.9,1.2,1.2,1.9c0.3,0.7,0.4,1.5,0.4,2.4
	c0,0.9-0.1,1.7-0.4,2.4s-0.7,1.4-1.2,1.9c-0.5,0.5-1.2,0.9-1.9,1.2c-0.7,0.3-1.5,0.4-2.4,0.4c-0.4,0-0.9,0-1.3-0.1
	c-0.4-0.1-0.9-0.2-1.3-0.4c-0.4-0.2-0.8-0.4-1.1-0.7c-0.3-0.3-0.6-0.6-0.9-1h0v7.6h-1.5V14.6z M130.4,20.2c0,0.6,0.1,1.2,0.4,1.8
	s0.6,1.1,1,1.5c0.4,0.4,0.9,0.7,1.5,1c0.6,0.2,1.2,0.4,1.9,0.4c0.7,0,1.3-0.1,1.9-0.4s1-0.6,1.4-1c0.4-0.4,0.7-0.9,0.9-1.5
	s0.3-1.2,0.3-1.8c0-0.6-0.1-1.2-0.3-1.8s-0.5-1.1-0.9-1.5c-0.4-0.4-0.9-0.7-1.4-1s-1.2-0.4-1.9-0.4c-0.7,0-1.3,0.1-1.9,0.4
	c-0.6,0.2-1.1,0.6-1.5,1c-0.4,0.4-0.8,0.9-1,1.5S130.4,19.6,130.4,20.2z"/>
<path class="st2" d="M144.7,7.4h1.5v18.5h-1.5V7.4z"/>
<path class="st2" d="M160.3,23.8c-0.6,0.9-1.3,1.5-2.1,1.9c-0.8,0.4-1.8,0.6-2.8,0.6c-0.9,0-1.6-0.1-2.4-0.4
	c-0.7-0.3-1.3-0.7-1.8-1.2c-0.5-0.5-0.9-1.2-1.2-1.9s-0.4-1.5-0.4-2.4c0-0.8,0.1-1.6,0.4-2.4s0.7-1.3,1.2-1.9
	c0.5-0.5,1.1-0.9,1.8-1.2c0.7-0.3,1.4-0.5,2.3-0.5c0.9,0,1.6,0.2,2.3,0.5c0.7,0.3,1.2,0.7,1.7,1.2c0.4,0.5,0.8,1.1,1,1.7
	c0.2,0.6,0.3,1.3,0.3,1.9v1h-9.5c0,0.3,0.1,0.7,0.2,1.2c0.1,0.5,0.3,1,0.7,1.4c0.3,0.5,0.8,0.8,1.3,1.2c0.5,0.3,1.3,0.5,2.1,0.5
	c0.8,0,1.5-0.2,2.2-0.5c0.7-0.4,1.2-0.8,1.6-1.5L160.3,23.8z M159.2,19.3c0-0.5-0.1-1-0.3-1.4c-0.2-0.4-0.5-0.8-0.8-1.2
	c-0.4-0.3-0.8-0.6-1.2-0.8c-0.5-0.2-1-0.3-1.5-0.3c-0.8,0-1.5,0.2-2,0.5c-0.5,0.3-1,0.7-1.3,1.1c-0.3,0.4-0.5,0.8-0.7,1.2
	c-0.1,0.4-0.2,0.7-0.2,0.8H159.2z"/>
<path class="st2" d="M166.8,19.8l-4-5.2h1.9l3.1,4.3l3.1-4.3h1.8l-4,5.2l4.9,6.1h-1.9l-3.9-5.1l-3.9,5.1h-1.8L166.8,19.8z"/>
<rect x="129.1" y="31" class="st2" width="1.5" height="7.3"/>
<rect x="144.7" y="0.7" class="st2" width="1.5" height="7"/>
</svg>
