<?xml version="1.0" encoding="utf-8"?>
<!-- Generator: Adobe Illustrator 21.1.0, SVG Export Plug-In . SVG Version: 6.00 Build 0)  -->
<svg version="1.1" id="Layer_1" xmlns="http://www.w3.org/2000/svg" xmlns:xlink="http://www.w3.org/1999/xlink" x="0px" y="0px"
	 viewBox="0 0 226 226" style="enable-background:new 0 0 226 226;" xml:space="preserve">
<style type="text/css">
	.st0{fill:#e9ebeb;}
</style>
<g>
	
		<rect x="123.6" y="2.1" transform="matrix(0.7073 -0.7069 0.7069 0.7073 -42.526 123.2862)" class="st0" width="8.1" height="221.9"/>
	<path class="st0" d="M136.9,109.6L209,37.5l-5.7-5.8l-72.2,72.1C133,105.7,134.9,107.7,136.9,109.6z"/>
	
		<rect x="34.4" y="151.5" transform="matrix(0.7076 -0.7066 0.7066 0.7076 -85.049 105.5992)" class="st0" width="101.4" height="8.1"/>
	<path class="st0" d="M127.5,10.6c24.2,0,47.1,8.3,65.4,23.7l5.8-5.8c0,0,0,0,0,0c-19.8-16.8-44.8-26-71.2-26
		c-27.2,0-52.2,9.9-71.4,26.3l5.8,5.8C79.6,19.6,102.5,10.6,127.5,10.6z"/>
	<path class="st0" d="M48.8,178.4C34,160.7,25.1,137.8,25.1,113S34,65.3,48.8,47.6L43,41.8C26.8,61.1,17,85.9,17,113
		s9.8,51.9,26,71.2L48.8,178.4z"/>
	<path class="st0" d="M127.5,215.4c-25,0-47.9-9-65.7-23.9l-5.8,5.8c19.3,16.4,44.2,26.3,71.4,26.3c26.3,0,51.3-9.2,71.2-26
		l-5.8-5.8C174.5,207,151.6,215.4,127.5,215.4z"/>
	<path class="st0" d="M127.7,40.6c16.1,0,31.4,5.2,44,14.9l5.8-5.8c-14.1-11.2-31.5-17.2-49.8-17.2c-19,0-36.5,6.6-50.2,17.7
		l5.8,5.8C95.5,46.4,110.9,40.6,127.7,40.6z"/>
	<path class="st0" d="M70.2,157c-9.4-12.2-14.9-27.4-14.9-44s5.6-31.8,14.9-44l-5.8-5.8C53.6,77,47.2,94.2,47.2,113
		c0,18.8,6.5,36,17.3,49.7L70.2,157z"/>
	<path class="st0" d="M127.7,185.4c-16.8,0-32.2-5.7-44.5-15.3c-1.9,1.9-3.9,3.9-5.8,5.8c13.8,11,31.2,17.7,50.2,17.7
		c18.3,0,35.7-6.1,49.8-17.2l-5.8-5.8C159.1,180.1,143.8,185.4,127.7,185.4z"/>
</g>
</svg>
