<?xml version="1.0" encoding="utf-8"?>
<!-- Generator: Adobe Illustrator 21.1.0, SVG Export Plug-In . SVG Version: 6.00 Build 0)  -->
<svg version="1.1" id="Layer_1" xmlns="http://www.w3.org/2000/svg" xmlns:xlink="http://www.w3.org/1999/xlink" x="0px" y="0px"
	 viewBox="0 0 216 216" style="enable-background:new 0 0 216 216;" xml:space="preserve">
<style type="text/css">
	.st0{fill:none;stroke:#F4F6F6;stroke-width:7;stroke-miterlimit:10;stroke-dasharray:400;}
	.st1{fill:none;stroke:#F4F6F6;stroke-width:5;stroke-miterlimit:10;}
	.st2{fill:none;stroke:#F4F6F6;stroke-width:6;stroke-miterlimit:10;stroke-dasharray:400;}

	<defs>
		<style>

			.st0 {
				stroke-dasharray:800;
				stroke-dashoffset:0;
				-webkit-animation: dash 3s linear forwards;
				-o-animation:dash 3s linear forwards;
				-moz-animation: dash 3s linear forwards;
				animation: dash 3s linear forwards;
			}

			.st1 {
				stroke-dasharray:800;
				stroke-dashoffset:0;
				-webkit-animation: dash 3s linear forwards;
				-o-animation:dash 3s linear forwards;
				-moz-animation: dash 3s linear forwards;
				animation: dash 3s linear forwards;
			}

			.st2 {
				stroke-dasharray:800;
				stroke-dashoffset:0;
				-webkit-animation: dash 3s linear forwards;
				-o-animation:dash 3s linear forwards;
				-moz-animation: dash 3s linear forwards;
				animation: dash 3s linear forwards;
			}
			@-webkit-keyframes dash {
				from {
					stroke-dashoffset:800;
				}
				to {
					stroke-dashoffset: 0;
				}
			}
		</style>
	</defs>
</style>
<line class="st0" x1="117.5" y1="101.8" x2="210.3" y2="8.9"/>
<line class="st0" x1="12.3" y1="207" x2="105.1" y2="114.1"/>
<path class="st1" d="M178.4,27.5c-18.2-15.2-41.5-24.3-67.1-24.3c-25.9,0-49.4,9.3-67.7,24.8"/>
<path class="st1" d="M44.7,188.9c18.1,14.8,41.3,23.9,66.6,23.9c25.9,0,49.4-9.3,67.7-24.8"/>
<path class="st1" d="M31.4,40.3C15.9,58.6,6.6,82.1,6.6,108c0,25.5,9.1,48.9,24.3,67.1"/>
<path class="st2" d="M159.4,46.5c-13.2-10.4-30-16.6-48-16.6c-18.5,0-35.4,6.3-48.7,17"/>
<path class="st2" d="M63.7,169.9c13.1,10.2,29.7,16.2,47.7,16.2c18.5,0,35.4-6.3,48.7-17"/>
<path class="st2" d="M50.4,59.3c-10.7,13.3-17,30.3-17,48.7c0,18.2,6.1,34.9,16.6,48.1"/>
<line class="st0" x1="12.3" y1="8.9" x2="210.3" y2="207"/>
</svg>
