<?xml version="1.0" encoding="utf-8"?>
<!-- Generator: Adobe Illustrator 19.1.0, SVG Export Plug-In . SVG Version: 6.00 Build 0)  -->
<svg version="1.1" id="Layer_1" xmlns="http://www.w3.org/2000/svg" xmlns:xlink="http://www.w3.org/1999/xlink" x="0px" y="0px"
	 viewBox="0 0 216 216" style="enable-background:new 0 0 216 216;" xml:space="preserve">
<style type="text/css">
	.st0{fill:none;stroke:#F4F6F6;stroke-width:7;stroke-miterlimit:10;}
	.st1{fill:none;stroke:#F4F6F6;stroke-width:6;stroke-miterlimit:10;}
</style>
<line class="st0" x1="113.5" y1="103.5" x2="204" y2="13"/>
<line class="st0" x1="11" y1="206" x2="101.5" y2="115.5"/>
<path class="st1" d="M172.9,31.1c-17.7-14.8-40.5-23.7-65.4-23.7c-25.2,0-48.2,9.1-66,24.2"/>
<path class="st1" d="M42.6,188.3c17.6,14.5,40.3,23.3,64.9,23.3c25.2,0,48.2-9.1,66-24.2"/>
<path class="st1" d="M29.6,43.5c-15.1,17.8-24.2,40.8-24.2,66c0,24.9,8.9,47.7,23.7,65.4"/>
<path class="st0" d="M154.4,49.6c-12.9-10.1-29.2-16.2-46.9-16.2c-18,0-34.5,6.2-47.5,16.6"/>
<path class="st0" d="M61.1,169.8c12.8,9.9,28.9,15.8,46.4,15.8c18,0,34.5-6.2,47.5-16.6"/>
<path class="st0" d="M48.1,62c-10.4,13-16.6,29.5-16.6,47.5c0,17.7,6,34,16.2,46.9"/>
<line class="st0" x1="11" y1="13" x2="204" y2="206"/>
</svg>
