<?xml version="1.0" encoding="UTF-8" standalone="no"?>
<!DOCTYPE svg PUBLIC "-//W3C//DTD SVG 1.1//EN" "http://www.w3.org/Graphics/SVG/1.1/DTD/svg11.dtd">
<svg version="1.1" xmlns="http://www.w3.org/2000/svg" xmlns:xlink="http://www.w3.org/1999/xlink" preserveAspectRatio="xMidYMid meet" viewBox="0 0 640 640" width="640" height="640"><defs><path d="M320 574.76C177.21 574.76 61.27 460.6 61.27 320C61.27 179.4 177.21 65.24 320 65.24C462.79 65.24 578.73 179.4 578.73 320C578.73 460.6 462.79 574.76 320 574.76Z" id="aMAzrLC9e"></path><path d="M634.65 320C634.65 493.66 493.66 634.65 320 634.65C146.34 634.65 5.35 493.66 5.35 320C5.35 146.34 146.34 5.35 320 5.35C493.66 5.35 634.65 146.34 634.65 320Z" id="bqUwoQyYC"></path><path d="M320 574.76C177.21 574.76 61.27 460.6 61.27 320C61.27 179.4 177.21 65.24 320 65.24C462.79 65.24 578.73 179.4 578.73 320C578.73 460.6 462.79 574.76 320 574.76Z" id="a5wyxe3Et"></path><path d="M320 489.84C224.8 489.84 147.51 413.74 147.51 320C147.51 226.26 224.8 150.16 320 150.16C415.2 150.16 492.49 226.26 492.49 320C492.49 413.74 415.2 489.84 320 489.84Z" id="d1r1ZJQQvC"></path><path d="M320 489.84C224.8 489.84 147.51 413.74 147.51 320C147.51 226.26 224.8 150.16 320 150.16C415.2 150.16 492.49 226.26 492.49 320C492.49 413.74 415.2 489.84 320 489.84Z" id="a3UPTanQvy"></path></defs><g><g><g><use xlink:href="#aMAzrLC9e" opacity="1" fill="#30a1ad" fill-opacity="0"></use><g><use xlink:href="#aMAzrLC9e" opacity="1" fill-opacity="0" stroke="#000000" stroke-width="1" stroke-opacity="0"></use></g></g><g><use xlink:href="#bqUwoQyYC" opacity="1" fill="#0c0c0c" fill-opacity="1"></use></g><g><use xlink:href="#a5wyxe3Et" opacity="1" fill="#0c0c0c" fill-opacity="1"></use><g><use xlink:href="#a5wyxe3Et" opacity="1" fill-opacity="0" stroke="#30a1ad" stroke-width="40" stroke-opacity="1"></use></g></g><g><use xlink:href="#d1r1ZJQQvC" opacity="1" fill="#30a1ad" fill-opacity="1"></use><g><use xlink:href="#d1r1ZJQQvC" opacity="1" fill-opacity="0" stroke="#000000" stroke-width="1" stroke-opacity="0"></use></g></g><g><use xlink:href="#a3UPTanQvy" opacity="1" fill="#30a1ad" fill-opacity="1"></use><g><use xlink:href="#a3UPTanQvy" opacity="1" fill-opacity="0" stroke="#30a1ad" stroke-width="40" stroke-opacity="1"></use></g></g></g></g></svg>