<?xml version="1.0" encoding="utf-8"?>
<!-- Generator: Adobe Illustrator 21.1.0, SVG Export Plug-In . SVG Version: 6.00 Build 0)  -->
<svg version="1.1" id="Layer_1" xmlns="http://www.w3.org/2000/svg" xmlns:xlink="http://www.w3.org/1999/xlink" x="0px" y="0px"
	 viewBox="0 0 226 226" style="enable-background:new 0 0 226 226;" xml:space="preserve">
<style type="text/css">
	.st0{fill:#65DFE5;}
	.st1{fill:#11676B;}
	.st2{fill:#032628;}
	.st3{fill:#30A1AD;}
</style>
<path class="st0" d="M139.3,185.4l8.5,28.8c39-13.3,68.4-48.6,72.2-91.9l-30-1.8C187,150.9,166.5,175.7,139.3,185.4z"/>
<path class="st1" d="M72.9,178.4l-18.1,24c15.1,9.9,32.9,16.2,52.2,17.3c9,0.5,17.8-0.1,26.3-1.7l-8.5-29c-5.2,0.8-10.5,1-16,0.7
	C95.6,189,83.4,184.9,72.9,178.4z"/>
<path class="st2" d="M121.5,36.6c36.6,3.8,65,33.2,68.5,69.1l30.2,1.8c-2.7-53-44.7-96.9-98.7-101V36.6z"/>
<path class="st3" d="M61,169.3c-16.2-15.1-25.8-37.1-24.4-60.9c2.3-38.4,32.6-68.7,69.9-72V6.4C53.5,9.8,10,52.3,6.7,106.7
	C4.7,140.9,19,172.3,43,193.4L61,169.3z"/>
</svg>
