<?xml version="1.0" encoding="utf-8"?>
<!-- Generator: Adobe Illustrator 21.1.0, SVG Export Plug-In . SVG Version: 6.00 Build 0)  -->
<svg version="1.1" id="Layer_1" xmlns="http://www.w3.org/2000/svg" xmlns:xlink="http://www.w3.org/1999/xlink" x="0px" y="0px"
	 viewBox="0 0 226 226" style="enable-background:new 0 0 226 226;" xml:space="preserve">
<style type="text/css">
	.st0{fill:#30A1AD;}
	.st1{fill:#032628;}
	.st2{fill:#65DFE5;}
	.st3{fill:#11676B;}
</style>
<path class="st0" d="M111.8,11.1c-41.1,0-74.6,33.4-74.6,74.6c0,7.8,1.2,15.3,3.4,22.3l36.7-11.6c-1.1-3.4-1.6-6.9-1.6-10.7
	c0-20,16.2-36.2,36.2-36.2c3.4,0,6.5,0.5,9.6,1.3l9.4-37.2C124.8,12,118.5,11.1,111.8,11.1z"/>
<path class="st1" d="M133.8,14.1l-9.4,37.2c15.3,4.2,26.5,18.2,26.5,34.8c0,8.1-2.7,15.6-7.2,21.6l30,24
	c9.8-12.6,15.6-28.4,15.6-45.5C189.3,51.7,165.7,22.5,133.8,14.1z"/>
<path class="st2" d="M142.2,110.3c-6.6,8.8-17.2,14.6-29,14.6c-8.7,0-16.8-3.2-23-8.4l-25.2,29c13.1,11,29.9,17.8,48.2,17.8
	c24,0,45.3-11.4,58.9-29L142.2,110.3z"/>
<path class="st3" d="M77.1,99.2l-35.1,11.2c4.1,13.1,11.9,24.5,22,33.2l24.2-27.9C83,111.3,79.1,105.6,77.1,99.2z"/>
<g>
	<rect x="8.2" y="172.4" class="st0" width="51.1" height="17.3"/>
	<rect x="61.3" y="172.4" class="st3" width="51.1" height="17.3"/>
	<rect x="113.7" y="172.4" class="st2" width="51.1" height="17.3"/>
	<rect x="166.9" y="172.4" class="st1" width="51.1" height="17.3"/>
</g>
</svg>
