<?xml version="1.0" standalone="no"?>
<!DOCTYPE svg PUBLIC "-//W3C//DTD SVG 20010904//EN"
 "http://www.w3.org/TR/2001/REC-SVG-20010904/DTD/svg10.dtd">
<svg version="1.0" xmlns="http://www.w3.org/2000/svg"
 width="700.000000pt" height="700.000000pt" viewBox="0 0 700.000000 700.000000"
 preserveAspectRatio="xMidYMid meet">
<metadata>
Created by potrace 1.11, written by Peter Selinger 2001-2013
</metadata>
<g transform="translate(0.000000,700.000000) scale(0.100000,-0.100000)"
fill="#000000" stroke="none">
<path d="M3328 6855 c-2 -1 -46 -5 -98 -9 -479 -30 -1008 -190 -1424 -431
-241 -139 -523 -343 -512 -371 3 -7 29 -42 58 -78 51 -62 53 -64 74 -48 351
279 666 454 1038 577 274 91 500 137 796 160 67 5 388 6 450 1 68 -6 167 -17
196 -21 16 -3 43 -7 59 -10 17 -2 48 -7 70 -10 22 -4 47 -8 55 -10 8 -2 31 -7
50 -10 78 -13 309 -78 426 -121 317 -115 580 -257 845 -456 72 -54 131 -98
133 -98 13 0 118 152 110 159 -68 62 -378 274 -494 338 -264 146 -552 263
-810 328 -108 27 -230 54 -272 60 -15 2 -53 8 -85 14 -53 9 -90 13 -223 27
-51 5 -437 13 -442 9z"/>
<path d="M355 6580 l-80 -80 3125 -3125 c1719 -1719 3128 -3124 3132 -3123 8
4 144 133 151 145 3 5 -1401 1416 -3121 3136 l-3127 3127 -80 -80z"/>
<path d="M5066 5193 l-1467 -1467 81 -80 80 -81 1466 1466 1466 1466 -80 81
-80 82 -1466 -1467z"/>
<path d="M3289 6026 c-2 -2 -33 -7 -69 -10 -97 -10 -194 -25 -248 -37 -26 -6
-56 -13 -67 -15 -338 -70 -739 -262 -1024 -490 -4 -3 116 -171 128 -178 7 -5
124 75 141 94 11 13 209 129 286 168 192 97 497 194 684 217 19 3 53 7 75 10
154 21 443 21 575 0 14 -2 45 -6 70 -10 270 -38 617 -163 853 -307 29 -18 60
-37 69 -43 10 -5 53 -36 97 -67 l80 -57 38 52 c21 29 50 71 64 93 l27 41 -92
65 c-332 234 -722 393 -1101 447 -44 7 -93 14 -110 17 -33 6 -471 15 -476 10z"/>
<path d="M809 5558 c-237 -296 -456 -711 -577 -1088 -47 -146 -109 -434 -126
-585 -14 -122 -17 -155 -21 -210 -5 -77 -5 -386 0 -445 2 -25 6 -74 10 -110
20 -228 77 -498 154 -735 121 -370 333 -761 576 -1061 l42 -52 76 60 77 61
-50 61 c-28 34 -97 131 -154 216 -307 457 -487 972 -533 1525 -8 99 -8 424 1
525 8 102 31 268 45 330 5 25 13 61 16 80 18 105 92 350 147 490 116 292 267
557 456 800 45 57 82 107 82 110 0 5 -81 71 -131 107 -15 11 -26 2 -90 -79z"/>
<path d="M1400 4967 c-217 -304 -376 -662 -436 -986 -3 -14 -7 -27 -9 -31 -2
-4 -9 -47 -15 -96 -6 -49 -13 -104 -16 -123 -18 -112 -18 -479 0 -566 2 -12 7
-48 11 -80 36 -306 170 -678 349 -973 60 -99 163 -242 174 -242 10 0 166 119
170 130 2 5 -21 42 -50 82 -210 286 -369 672 -413 1001 -2 15 -7 47 -10 70
-13 83 -21 231 -18 346 9 483 167 949 454 1345 l58 78 -27 22 c-33 26 -133
100 -147 108 -5 3 -39 -35 -75 -85z"/>
<path d="M1753 1880 c-798 -797 -1456 -1456 -1462 -1464 -11 -13 1 -28 64 -91
42 -41 79 -75 83 -75 4 0 665 658 1470 1463 l1462 1462 -78 78 c-42 42 -80 77
-83 77 -4 0 -659 -652 -1456 -1450z"/>
<path d="M4880 1559 c-247 -187 -593 -344 -895 -405 -11 -2 -31 -6 -45 -10
-116 -26 -310 -41 -495 -38 -110 2 -209 5 -220 7 -11 2 -45 7 -75 11 -346 46
-726 196 -1016 403 -38 27 -74 52 -80 56 -7 4 -36 -30 -73 -82 -33 -49 -61
-92 -61 -94 0 -3 37 -32 83 -65 559 -400 1289 -556 1972 -421 55 11 111 22
125 25 109 20 394 126 542 200 188 94 456 276 440 298 -5 6 -35 46 -66 89 -31
42 -60 77 -64 76 -4 0 -36 -22 -72 -50z"/>
<path d="M5475 934 c-175 -144 -529 -355 -725 -434 -30 -12 -68 -28 -85 -35
-96 -42 -380 -129 -485 -149 -14 -3 -59 -12 -100 -20 -192 -38 -339 -51 -590
-51 -176 0 -292 6 -400 19 -284 37 -531 101 -796 206 -200 80 -406 187 -579
303 -93 62 -230 162 -254 185 -7 7 -17 12 -21 10 -4 -2 -33 -35 -64 -75 l-56
-72 82 -64 c430 -334 967 -570 1503 -662 17 -2 40 -7 53 -9 92 -19 331 -37
492 -39 128 -1 388 11 399 17 4 2 38 7 76 11 39 3 117 16 175 27 138 26 126
24 200 43 36 9 74 19 85 21 89 16 390 129 560 209 175 82 467 258 583 352 12
10 51 41 87 68 35 28 64 53 65 56 0 8 -110 143 -119 146 -3 1 -42 -27 -86 -63z"/>
</g>
</svg>
