<?xml version="1.0" encoding="utf-8"?>
<!-- Generator: Adobe Illustrator 22.1.0, SVG Export Plug-In . SVG Version: 6.00 Build 0)  -->
<svg version="1.1" id="Layer_1" xmlns="http://www.w3.org/2000/svg" xmlns:xlink="http://www.w3.org/1999/xlink" x="0px" y="0px"
	 viewBox="0 0 700 700" style="enable-background:new 0 0 700 700;" xml:space="preserve">
<style type="text/css">
	.st0{fill:#0C0C0C;stroke:#000000;stroke-miterlimit:10;}
	.st1{fill:#E9EBEB;}
</style>
<circle class="st0" cx="350" cy="350" r="350"/>
<g transform="translate(0.000000,700.000000) scale(0.100000,-0.100000)">
	<path class="st1" d="M3490.7,6701.8c-0.9-0.9-69.2-3.7-152.5-6.5c-83.3-3.7-156.2-8.4-163.7-10.3c-7.5-2.8-39.3-7.5-72-9.4
		c-31.8-2.8-68.3-7.5-79.5-10.3c-11.2-1.9-35.5-6.5-54.3-8.4c-73-10.3-269.4-55.2-372.3-85.1c-267.5-77.6-575.3-218-814.8-370.5
		c-74.8-46.8-137.5-88.9-140.3-91.7c-2.8-2.8-44.9-35.5-93.5-73c-138.5-103.8-135.6-87.9-38.4-184.3l83.3-82.3l68.3,55.2
		c192.7,156.2,430.3,297.5,705.4,419.1c57.1,25.3,308.7,108.5,382.6,126.3c130,32.7,290,62.7,370.5,71.1
		c28.1,2.8,83.3,8.4,121.6,13.1c89.8,9.4,450,9.4,515.5,0c28.1-4.7,75.8-10.3,106.6-13.1c30.9-2.8,69.2-7.5,84.2-10.3
		c15.9-2.8,63.6-11.2,107.6-19.6c151.5-27.1,353.6-85.1,505.2-144.1c28.1-11.2,64.5-24.3,79.5-30.9c58.9-21.5,275-132.8,371.4-189.9
		c111.3-67.4,248.8-163.7,323.7-226.4l49.6-42.1l38.4,36.5c58.9,56.1,129.1,129.1,129.1,134.7c-0.9,10.3-197.4,156.2-308.7,230.1
		c-403.2,263.8-894.3,444.4-1351.8,495.8c-30.9,2.8-63.6,7.5-73,9.4C3791,6689.6,3495.3,6704.6,3490.7,6701.8z"/>
	<path class="st1" d="M1224.9,5771.9l-83.3-83.3L3414,3414.5l2273.2-2273.2l83.3,83.3l83.3,83.3L3581.4,3581.9L1309.1,5856.1
		L1224.9,5771.9z"/>
	<path class="st1" d="M4641.3,4810.2L3595.4,3765.3l85.1-84.2l84.2-84.2l1045.9,1045.9l1044.9,1044.9l-84.2,83.3l-84.2,84.2
		L4641.3,4810.2z"/>
	<path class="st1" d="M3482.2,5832.7c-1.9-0.9-53.3-4.7-115.1-8.4c-61.7-2.8-122.5-7.5-135.6-9.4c-13.1-2.8-44-6.5-68.3-10.3
		c-24.3-2.8-66.4-9.4-93.5-15c-27.1-5.6-58.9-11.2-72-14c-13.1-2.8-30.9-6.5-39.3-9.4c-8.4-2.8-25.3-6.5-36.5-8.4
		c-11.2-2.8-63.6-17.8-115.1-33.7c-241.4-73.9-476.2-193.6-683.8-347.1l-79.5-58.9l81.4-81.4c44.9-45.8,84.2-82.3,87-82.3
		s39.3,24.3,81.4,54.3c203.9,141.3,390.1,232,626.8,305c41.2,13.1,79.5,21.5,200.2,47.7c8.4,1.9,35.5,5.6,60.8,9.4
		c25.3,2.8,71.1,9.4,102,14c58.9,8.4,406.9,5.6,463.1-3.7c17.8-2.8,51.5-7.5,74.8-10.3c23.4-3.7,80.5-14,126.3-24.3
		c281.6-62.7,526.7-170.3,769-339.6l58-41.2l79.5,80.5c44,43,80.5,82.3,80.5,86.1c0,9.4-145,112.3-233.9,165.6
		c-265.7,159-605.3,279.7-868.1,307.8c-28.1,2.8-60.8,7.5-71.1,9.4c-11.2,2.8-70.2,6.5-131.9,9.4c-61.7,2.8-119.7,6.5-128.2,7.5
		C3492.5,5833.6,3484.1,5834.6,3482.2,5832.7z"/>
	<path class="st1" d="M995.7,5502.5c-198.3-249.8-353.6-516.4-470.5-806.4c-44.9-110.4-111.3-305.9-122.5-360.2
		c-2.8-10.3-15-62.7-28.1-116.9c-13.1-54.3-26.2-115.1-29.9-135.6c-2.8-20.6-7.5-44-8.4-51.5c-1.9-7.5-6.5-37.4-10.3-65.5
		c-3.7-28.1-8.4-53.3-8.4-56.1c-0.9-2.8-4.7-38.4-8.4-79.5c-3.7-41.2-8.4-91.7-11.2-112.3c-4.7-49.6-4.7-414.4,0-444.4
		c1.9-13.1,6.5-52.4,9.4-88.9c11.2-116.9,26.2-217,56.1-364.8c1.9-10.3,8.4-37.4,15-60.8c6.5-23.4,13.1-51.5,15-63.6
		c10.3-55.2,75.8-253.5,122.5-371.4c86.1-218.9,214.2-459.3,339.6-640.8c72-102.9,181.5-243.2,189-240.4c3.7,0.9,43,37.4,87,80.5
		c87.9,85.1,87,82.3,35.5,136.6c-33.7,35.5-163.7,224.5-223.6,324.6c-176.8,297.5-300.3,622.1-363.9,952.3
		c-2.8,13.1-6.5,31.8-8.4,42.1c-1.9,10.3-6.5,37.4-9.4,60.8c-2.8,23.4-7.5,50.5-9.4,60.8s-6.5,50.5-10.3,88.9
		c-2.8,38.4-7.5,87-9.4,107.6c-4.7,51.5-5.6,346.1-0.9,396.6c2.8,22.5,7.5,73,11.2,112.3c2.8,39.3,7.5,79.5,9.4,89.8
		c1.9,10.3,6.5,37.4,9.4,59.9c7.5,61.7,37.4,205.8,64.5,306.8c94.5,355.5,267.5,711,485.5,1000c42.1,54.3,81.4,106.6,87,115.1
		c10.3,13.1,0.9,27.1-69.2,97.3c-44,44.9-83.3,81.4-86.1,80.5C1040.6,5555.8,1019.1,5531.5,995.7,5502.5z"/>
	<path class="st1" d="M1635.6,4901c-15-20.6-40.2-55.2-56.1-76.7c-73-100.1-247-428.5-247-466.8c0-7.5-3.7-16.8-8.4-22.5
		c-13.1-13.1-83.3-238.5-98.2-312.5c-2.8-13.1-6.5-33.7-9.4-46.8c-12.2-53.3-15-72-19.6-107.6c-2.8-20.6-7.5-52.4-10.3-70.2
		c-17.8-119.7-23.4-440.6-9.4-531.4c6.5-39.3,13.1-86.1,18.7-132.8c4.7-29.9,13.1-74.8,34.6-173.1c3.7-20.6,16.8-66.4,27.1-102.9
		c11.2-35.5,24.3-80.5,29.9-98.2c31.8-108.5,146.9-353.6,223.6-477.1c53.3-85.1,142.2-207.7,154.4-212.4
		c8.4-2.8,84.2,68.3,160.9,150.6c1.9,1.9-29,51.5-69.2,109.5c-96.4,144.1-198.3,351.7-250.7,515.5
		c-97.3,299.4-125.4,599.6-86.1,934.5c3.7,29,22.5,128.2,37.4,203.9c34.6,161.8,161.8,473.4,245.1,595
		c12.2,18.7,22.5,35.5,22.5,39.3c0,2.8,21.5,33.7,47.7,70.2c25.3,35.5,48.6,70.2,51.5,76.7c3.7,9.4-100.1,122.5-151.5,165.6
		C1666.5,4935.6,1653.4,4925.3,1635.6,4901z"/>
	<path class="st1" d="M2179.1,2348L1141.7,1310.6l82.3-83.3l81.4-83.3l1039.3,1037.5L3384,3218l-17.8,19.6
		c-18.7,21.5-145,148.7-147.8,148.7C3218.4,3386.4,2750.7,2919.6,2179.1,2348z"/>
	<path class="st1" d="M2124.9,1760.5l-82.3-82.3l26.2-22.5c55.2-48.6,259.1-177.7,364.8-232c237.6-121.6,537-215.2,760.5-239.5
		c28.1-2.8,68.3-8.4,88.9-11.2c49.6-7.5,371.4-7.5,430.3,0c200.2,25.3,307.8,46.8,452.8,89.8c244.2,73,479,188,691.3,339.6
		c42.1,29.9,76.7,57.1,76.7,59.9c0,6.5-156.2,161.8-162.8,161.8c-3.7,0-56.1-32.7-116-72c-115.1-76.7-275-160-395.7-207.7
		c-119.7-46.8-343.3-106.6-440.6-117.9c-22.5-2.8-57.1-7.5-77.6-10.3c-75.8-12.2-314.3-16.8-411.6-8.4
		c-389.2,35.5-765.2,174.9-1065.5,396.6c-28.1,21.5-53.3,38.4-54.3,38.4C2208.1,1842.9,2169.8,1805.4,2124.9,1760.5z"/>
	<path class="st1" d="M1506.5,1142.2c-44-44-80.5-83.3-80.5-86.1c0-7.5,103.8-90.7,201.1-160c224.5-160.9,482.7-300.3,734.4-395.7
		c151.5-58,407.9-130,523.9-148.7c17.8-2.8,71.1-11.2,116.9-18.7c160.9-27.1,290-36.5,491.1-36.5c122.5,0,301.2,7.5,357.4,16.8
		c12.2,1.9,41.2,5.6,64.5,8.4c45.8,6.5,83.3,13.1,120.7,19.6c13.1,2.8,40.2,7.5,60.8,10.3c77.6,11.2,332.1,80.5,449,121.6
		c367.6,131,663.3,297.5,993.5,562.2c12.2,9.4,0.9,24.3-70.2,96.4l-83.3,85.1l-50.5-41.2C4926.6,846.6,4379.4,616.4,3863,555.6
		c-20.6-2.8-66.4-8.4-102.9-12.2c-87-10.3-418.2-10.3-523.9,0c-580.9,55.2-1097.3,257.3-1552.9,607.1l-95.4,73L1506.5,1142.2z"/>
</g>
</svg>
