<?xml version="1.0" standalone="no"?>
<!DOCTYPE svg PUBLIC "-//W3C//DTD SVG 20010904//EN"
 "http://www.w3.org/TR/2001/REC-SVG-20010904/DTD/svg10.dtd">
<svg version="1.0" xmlns="http://www.w3.org/2000/svg"
 width="700.000000pt" height="700.000000pt" viewBox="0 0 700.000000 700.000000"
 preserveAspectRatio="xMidYMid meet">
<metadata>
Created by potrace 1.11, written by Peter Selinger 2001-2013
</metadata>
<g transform="translate(0.000000,700.000000) scale(0.100000,-0.100000)"
fill="#000000" stroke="none">
<path d="M3947 6924 c-1 -1 -74 -4 -163 -7 -89 -4 -167 -9 -175 -11 -8 -3 -42
-8 -77 -10 -34 -3 -73 -8 -85 -11 -12 -2 -38 -7 -58 -9 -78 -11 -288 -59 -398
-91 -286 -83 -615 -233 -871 -396 -80 -50 -147 -95 -150 -98 -3 -3 -48 -38
-100 -78 -148 -111 -145 -94 -41 -197 l89 -88 73 59 c206 167 460 318 754 448
61 27 330 116 409 135 139 35 310 67 396 76 30 3 89 9 130 14 96 10 481 10
551 0 30 -5 81 -11 114 -14 33 -3 74 -8 90 -11 17 -3 68 -12 115 -21 162 -29
378 -91 540 -154 30 -12 69 -26 85 -33 63 -23 294 -142 397 -203 119 -72 266
-175 346 -242 l53 -45 41 39 c63 60 138 138 138 144 -1 11 -211 167 -330 246
-431 282 -956 475 -1445 530 -33 3 -68 8 -78 10 -29 5 -345 21 -350 18z"/>
<path d="M1525 5930 l-89 -89 2429 -2431 2430 -2430 89 89 89 89 -2429 2431
-2429 2431 -90 -90z"/>
<path d="M5177 4902 l-1118 -1117 91 -90 90 -90 1118 1118 1117 1117 -90 89
-90 90 -1118 -1117z"/>
<path d="M3938 5995 c-2 -1 -57 -5 -123 -9 -66 -3 -131 -8 -145 -10 -14 -3
-47 -7 -73 -11 -26 -3 -71 -10 -100 -16 -29 -6 -63 -12 -77 -15 -14 -3 -33 -7
-42 -10 -9 -3 -27 -7 -39 -9 -12 -3 -68 -19 -123 -36 -258 -79 -509 -207 -731
-371 l-85 -63 87 -87 c48 -49 90 -88 93 -88 3 0 42 26 87 58 218 151 417 248
670 326 44 14 85 23 214 51 9 2 38 6 65 10 27 3 76 10 109 15 63 9 435 6 495
-4 19 -3 55 -8 80 -11 25 -4 86 -15 135 -26 301 -67 563 -182 822 -363 l62
-44 85 86 c47 46 86 88 86 92 0 10 -155 120 -250 177 -284 170 -647 299 -928
329 -30 3 -65 8 -76 10 -12 3 -75 7 -141 10 -66 3 -128 7 -137 8 -9 2 -18 3
-20 1z"/>
<path d="M1280 5642 c-212 -267 -378 -552 -503 -862 -48 -118 -119 -327 -131
-385 -3 -11 -16 -67 -30 -125 -14 -58 -28 -123 -32 -145 -3 -22 -8 -47 -9 -55
-2 -8 -7 -40 -11 -70 -4 -30 -9 -57 -9 -60 -1 -3 -5 -41 -9 -85 -4 -44 -9 -98
-12 -120 -5 -53 -5 -443 0 -475 2 -14 7 -56 10 -95 12 -125 28 -232 60 -390 2
-11 9 -40 16 -65 7 -25 14 -55 16 -68 11 -59 81 -271 131 -397 92 -234 229
-491 363 -685 77 -110 194 -260 202 -257 4 1 46 40 93 86 94 91 93 88 38 146
-36 38 -175 240 -239 347 -189 318 -321 665 -389 1018 -3 14 -7 34 -9 45 -2
11 -7 40 -10 65 -3 25 -8 54 -10 65 -2 11 -7 54 -11 95 -3 41 -8 93 -10 115
-5 55 -6 370 -1 424 3 24 8 78 12 120 3 42 8 85 10 96 2 11 7 40 10 64 8 66
40 220 69 328 101 380 286 760 519 1069 45 58 87 114 93 123 11 14 1 29 -74
104 -47 48 -89 87 -92 86 -3 0 -26 -26 -51 -57z"/>
<path d="M1964 4999 c-16 -22 -43 -59 -60 -82 -78 -107 -264 -458 -264 -499 0
-8 -4 -18 -9 -24 -14 -14 -89 -255 -105 -334 -3 -14 -7 -36 -10 -50 -13 -57
-16 -77 -21 -115 -3 -22 -8 -56 -11 -75 -19 -128 -25 -471 -10 -568 7 -42 14
-92 20 -142 5 -32 14 -80 37 -185 4 -22 18 -71 29 -110 12 -38 26 -86 32 -105
34 -116 157 -378 239 -510 57 -91 152 -222 165 -227 9 -3 90 73 172 161 2 2
-31 55 -74 117 -103 154 -212 376 -268 551 -104 320 -134 641 -92 999 4 31 24
137 40 218 37 173 173 506 262 636 13 20 24 38 24 42 0 3 23 36 51 75 27 38
52 75 55 82 4 10 -107 131 -162 177 -7 5 -21 -6 -40 -32z"/>
<path d="M2545 2270 l-1109 -1109 88 -89 87 -89 1111 1109 1111 1108 -19 21
c-20 23 -155 159 -158 159 0 0 -500 -499 -1111 -1110z"/>
<path d="M2487 1642 l-88 -88 28 -24 c59 -52 277 -190 390 -248 254 -130 574
-230 813 -256 30 -3 73 -9 95 -12 53 -8 397 -8 460 0 214 27 329 50 484 96
261 78 512 201 739 363 45 32 82 61 82 64 0 7 -167 173 -174 173 -4 0 -60 -35
-124 -77 -123 -82 -294 -171 -423 -222 -128 -50 -367 -114 -471 -126 -24 -3
-61 -8 -83 -11 -81 -13 -336 -18 -440 -9 -416 38 -818 187 -1139 424 -30 23
-57 41 -58 41 -2 0 -43 -40 -91 -88z"/>
<path d="M1826 981 c-47 -47 -86 -89 -86 -92 0 -8 111 -97 215 -171 240 -172
516 -321 785 -423 162 -62 436 -139 560 -159 19 -3 76 -12 125 -20 172 -29
310 -39 525 -39 131 0 322 8 382 18 13 2 44 6 69 9 49 7 89 14 129 21 14 3 43
8 65 11 83 12 355 86 480 130 393 140 709 318 1062 601 13 10 1 26 -75 103
l-89 91 -54 -44 c-437 -352 -1022 -598 -1574 -663 -22 -3 -71 -9 -110 -13 -93
-11 -447 -11 -560 0 -621 59 -1173 275 -1660 649 l-102 78 -87 -87z"/>
</g>
</svg>
